<svg version="1.0" xmlns="http://www.w3.org/2000/svg"
 width="1280.000000pt" height="1148.000000pt" viewBox="0 0 1280.000000 1148.000000"
 preserveAspectRatio="xMidYMid meet">
<g transform="translate(0.000000,1148.000000) scale(0.100000,-0.100000)"
fill="#ffffff" stroke="none">
<path d="M1630 11474 c-79 -10 -238 -47 -315 -75 -402 -142 -751 -508 -990
-1039 -113 -251 -159 -392 -199 -610 -153 -837 -167 -2851 -30 -4375 32 -366
93 -827 135 -1025 84 -393 222 -666 445 -879 142 -136 272 -214 457 -276 204
-68 115 -65 2164 -65 l1849 0 120 -62 c214 -110 3877 -2019 4334 -2259 425
-222 448 -233 502 -233 66 -1 101 24 119 85 10 32 9 43 -10 81 -19 38 -155
145 -1188 933 -642 490 -1322 1009 -1512 1155 l-345 265 675 6 c1694 16 2808
116 3223 289 150 62 368 225 497 371 168 188 356 502 424 703 136 405 207
1367 208 2796 0 1378 -69 2618 -172 3122 -117 566 -572 904 -1366 1014 -126
18 -930 29 -3145 44 -899 6 -2215 15 -2925 20 -1916 14 -2916 19 -2955 14z"/>
</g>
</svg>
